<svg xmlns="http://www.w3.org/2000/svg" xmlns:xlink="http://www.w3.org/1999/xlink"><symbol viewBox="0 0 24 24" id="icon-at-svgrepo-com" xmlns="http://www.w3.org/2000/svg"><g fill="none" fill-rule="evenodd"><path d="M24 0v24H0V0h24ZM12.593 23.258l-.011.002-.071.035-.02.004-.014-.004-.071-.035c-.01-.004-.019-.001-.024.005l-.004.01-.017.428.005.02.01.013.104.074.015.004.012-.004.104-.074.012-.016.004-.017-.017-.427c-.002-.01-.009-.017-.017-.018Zm.265-.113-.013.002-.185.093-.01.01-.003.011.018.43.005.012.008.007.201.093c.012.004.023 0 .029-.008l.004-.014-.034-.614c-.003-.012-.01-.02-.02-.022Zm-.715.002a.023.023 0 0 0-.027.006l-.006.014-.034.614c0 .012.007.02.017.024l.015-.002.201-.093.01-.008.004-.011.017-.43-.003-.012-.01-.01-.184-.092Z"/><path d="M4.5 12A7.5 7.5 0 0 1 12 4.5c5.05 0 7.917 4.167 7.51 7.834-.113 1.009-.402 1.558-.623 1.85-.26.344-.732.67-1.184.654-.33-.012-.232-.475-.21-.689l.5-5a1.5 1.5 0 0 0-2.396-1.347A5.515 5.515 0 0 0 12.031 6.5C9.008 6.5 6.5 8.948 6.5 12c0 3.056 2.518 5.5 5.538 5.5a5.552 5.552 0 0 0 3.096-.946c.163.221.357.425.584.604 1.108.878 2.582.869 3.953.184a4.543 4.543 0 0 0 1.61-1.35c.585-.774 1.046-1.85 1.21-3.326C23.083 7.333 18.949 1.5 12 1.5 6.201 1.5 1.5 6.201 1.5 12S6.201 22.5 12 22.5c1.674 0 3.26-.393 4.668-1.092a1.5 1.5 0 0 0-1.336-2.687A7.5 7.5 0 0 1 4.5 12Zm5 0c0-1.366 1.135-2.5 2.53-2.5 1.609 0 2.808 1.481 2.484 3.016-.24 1.143-1.28 1.984-2.476 1.984-1.4 0-2.538-1.137-2.538-2.5Z" fill="#f5f5f5"/></g></symbol><symbol viewBox="0 0 24 24" id="icon-camera-svgrepo-com" xmlns="http://www.w3.org/2000/svg"><g fill="none"><path d="M24 0v24H0V0h24ZM12.593 23.258l-.011.002-.071.035-.02.004-.014-.004-.071-.035c-.01-.004-.019-.001-.024.005l-.004.01-.017.428.005.02.01.013.104.074.015.004.012-.004.104-.074.012-.016.004-.017-.017-.427c-.002-.01-.009-.017-.017-.018Zm.265-.113-.013.002-.185.093-.01.01-.003.011.018.43.005.012.008.007.201.093c.012.004.023 0 .029-.008l.004-.014-.034-.614c-.003-.012-.01-.02-.02-.022Zm-.715.002a.023.023 0 0 0-.027.006l-.006.014-.034.614c0 .012.007.02.017.024l.015-.002.201-.093.01-.008.004-.011.017-.43-.003-.012-.01-.01-.184-.092Z"/><path d="M20 3a2 2 0 0 1 2 2v14a2 2 0 0 1-2 2H4a2 2 0 0 1-2-2V5a2 2 0 0 1 2-2h16Zm-8 4a5 5 0 1 0 0 10 5 5 0 0 0 0-10Zm0 2a3 3 0 1 1 0 6 3 3 0 0 1 0-6Zm7-3h-1a1 1 0 0 0-.117 1.993L18 8h1a1 1 0 1 0 0-2Z" fill="#f5f5f5"/></g></symbol><symbol viewBox="0 -4.5 20 20" id="icon-simple-arrow" xmlns="http://www.w3.org/2000/svg"><path d="M.292.366c-.39.405-.39 1.06 0 1.464l8.264 8.563c.78.81 2.047.81 2.827 0l8.325-8.625c.385-.4.39-1.048.01-1.454a.976.976 0 0 0-1.425-.011l-7.617 7.893a.975.975 0 0 1-1.414 0L1.705.366a.974.974 0 0 0-1.413 0"  fill-rule="evenodd"/></symbol><symbol viewBox="0 0 24 24" id="icon-telegram-svgrepo-com" xmlns="http://www.w3.org/2000/svg"><g fill="none" fill-rule="evenodd"><path d="M24 0v24H0V0h24ZM12.593 23.258l-.011.002-.071.035-.02.004-.014-.004-.071-.035c-.01-.004-.019-.001-.024.005l-.004.01-.017.428.005.02.01.013.104.074.015.004.012-.004.104-.074.012-.016.004-.017-.017-.427c-.002-.01-.009-.017-.017-.018Zm.265-.113-.013.002-.185.093-.01.01-.003.011.018.43.005.012.008.007.201.093c.012.004.023 0 .029-.008l.004-.014-.034-.614c-.003-.012-.01-.02-.02-.022Zm-.715.002a.023.023 0 0 0-.027.006l-.006.014-.034.614c0 .012.007.02.017.024l.015-.002.201-.093.01-.008.004-.011.017-.43-.003-.012-.01-.01-.184-.092Z"/><path d="M19.777 4.43a1.5 1.5 0 0 1 2.062 1.626l-2.268 13.757c-.22 1.327-1.676 2.088-2.893 1.427-1.018-.553-2.53-1.405-3.89-2.294-.68-.445-2.763-1.87-2.507-2.884.22-.867 3.72-4.125 5.72-6.062.785-.761.427-1.2-.5-.5-2.303 1.738-5.998 4.381-7.22 5.125-1.078.656-1.64.768-2.312.656-1.226-.204-2.363-.52-3.291-.905-1.254-.52-1.193-2.244-.001-2.746l17.1-7.2Z" fill="#f5f5f5"/></g></symbol></svg>